<svg xmlns="http://www.w3.org/2000/svg" viewBox="0 0 430 40" width="430" height="40" aria-label="Kirk Tech Solutions and FlatClaw">
  <g>
<g id="kirk-logo">
<g id="color=white">
<g id="text">
<g id="k">
<path id="Vector" d="M174.444 19.782L199.941 0H181.523L156.447 19.782L181.523 40H199.941L174.444 19.782Z" fill="white"/>
<path id="Vector_2" d="M156.447 0H142.161V40H156.447V0Z" fill="white"/>
</g>
<g id="i">
<path id="Vector_3" d="M78.2735 9.97701L63.9878 21.1654V40H78.2735V9.97701Z" fill="white"/>
<path id="Vector_4" d="M78.2735 0H63.9878V11.0925L78.2735 0Z" fill="#FA6900"/>
</g>
<g id="r">
<path id="Subtract" d="M115.132 0C118.53 0 124.677 0.510294 127.184 1.53027C129.691 2.55029 131.627 4.0576 132.981 6.05566C134.358 8.0537 135.044 10.52 135.044 13.4541C135.044 16.0039 134.648 18.134 133.859 19.8447C133.07 21.5587 131.968 22.9766 130.553 24.0967C129.378 25.0229 128.034 25.81 126.53 26.4619L138.168 40H121.241L111.577 28.8027H103.593V40H88.1677V0H115.132ZM103.593 8.93164V23.6768L110.008 18.6963H115.132C116.013 18.6963 118.677 18.505 119.654 17.6367C120.491 16.8944 121.2 16.3488 121.2 14.4316C121.2 12.5145 120.686 11.6623 119.654 10.5811C118.622 9.48034 117.115 8.93164 115.132 8.93164H103.593Z" fill="white"/>
</g>
<g id="K">
<path id="Vector_5" d="M31.9639 19.782L57.4611 0H39.0434L13.967 19.782L39.0434 40H57.4611L31.9639 19.782Z" fill="white"/>
<path id="Vector_6" d="M14.2857 0H0V40H14.2857V0Z" fill="white"/>
</g>
</g>
</g>
</g>
</g>
  <rect x="228" y="4" width="1.5" height="32" fill="rgba(255,255,255,0.35)"/>
  <g transform="translate(256 -0.5) scale(0.3636)">
  <g transform="translate(2 4) scale(0.2)">
    <path fill="#ffffff" d="M182.338 22.55c152.455 20.22 254.7 176.264 228.928 258.163-34.76-89.215-143.516-189.588-300.207-196.15C255.855 103.772 355.365 245.5 342.92 329.856c-9.85.97-20.79.927-32.852-.24-41.436-84.32-146.004-172.382-292.437-178.513 142.546 18.907 241.2 156.557 232.36 241.316-15.664-.633-33.447-3.34-53.48-8.46 18.37 8.188 35.514 14.817 51.502 20.067-10.614 44.085-55.285 69.374-144.93 46.47C250 515.968 319.647 483.338 328.736 419.743c56.24 1.254 85.915-24.86 92.856-63.008 164.112-19.88 36.806-322.627-239.254-334.185zm132.808 318.083c7.97 2.704 15.666 5.077 23.07 7.11-3.122 7.893-7.546 14.993-13.35 21.095-2.393-9.222-5.635-18.663-9.72-28.205z"/>
  </g>
  <g transform="translate(116 78)" fill="#ffffff">
    <path d="M25.672735691070557 -35.0625V-26.227761268615723H0.6242203712463379V-35.0625ZM7.017816066741943 0.0V-38.93262577056885Q7.017816066741943 -42.515920639038086 8.348599910736084 -44.84678649902344Q9.679383754730225 -47.17765235900879 12.398063898086548 -48.325154304504395Q15.116744041442871 -49.47265625 19.276448726654053 -49.47265625Q21.271303176879883 -49.47265625 23.09549307823181 -49.47265625Q24.91968297958374 -49.47265625 25.672735691070557 -49.47265625V-40.63791751861572Q25.197264671325684 -40.63791751861572 24.10089683532715 -40.63791751861572Q23.004528999328613 -40.63791751861572 22.179760456085205 -40.63791751861572Q20.157028675079346 -40.63791751861572 19.311678409576416 -39.80120038986206Q18.466328144073486 -38.9644832611084 18.466328144073486 -36.959017753601074V0.0Z"/>
    <path d="M39.57685848236084 -49.47265625V0.0H28.128346405029298V-49.47265625Z"/>
    <path d="M54.627097053527834 0.6069540977478027Q51.115534229278566 0.6069540977478027 48.4101442527771 -0.5378890037536621Q45.70475427627564 -1.682732105255127 44.157489461898805 -3.993668794631958Q42.610224647521974 -6.304605484008789 42.610224647521974 -9.790933609008789Q42.610224647521974 -12.761948585510254 43.67537943840027 -14.768082857131958Q44.740534229278566 -16.774217128753662 46.615181369781496 -18.029961585998535Q48.489828510284426 -19.285706043243408 50.958812398910524 -19.938480615615845Q53.42779628753662 -20.59125518798828 56.20225135803223 -20.82234764099121Q59.35388938903809 -21.08531379699707 61.241818590164186 -21.406057119369507Q63.129747791290285 -21.726800441741943 63.95584170341492 -22.30851984024048Q64.78193561553955 -22.890239238739014 64.78193561553955 -23.94078254699707V-24.121405601501465Q64.78193561553955 -25.1639723777771 64.1842834186554 -25.94755721092224Q63.58663122177124 -26.731142044067383 62.4995693397522 -27.1740665435791Q61.412507457733156 -27.61699104309082 59.889160079956056 -27.61699104309082Q58.323311729431154 -27.61699104309082 57.153906745910646 -27.144182920455933Q55.98450176239014 -26.671374797821045 55.31380431175232 -25.79415488243103Q54.643106861114504 -24.916934967041016 54.510294361114504 -23.712332725524902H43.89585678100586Q44.16281120300293 -27.513433933258057 46.11515657424927 -30.222147464752197Q48.06750194549561 -32.93086099624634 51.63817135810852 -34.379181146621704Q55.20884077072144 -35.82750129699707 60.29291526794434 -35.82750129699707Q64.10464374542236 -35.82750129699707 67.05773584365845 -35.010040521621704Q70.01082794189453 -34.19257974624634 72.03157369613648 -32.6147665977478Q74.05231945037842 -31.036953449249268 75.08294574737549 -28.773162603378296Q76.11357204437256 -26.509371757507324 76.11357204437256 -23.616711616516113V0.0H64.93334381103516V-4.929999351501465H64.80053131103516Q63.76591674804688 -3.0374131202697754 62.335523529052736 -1.8095622062683105Q60.905130310058595 -0.5817112922668457 59.00657789230347 0.012621402740478516Q57.10802547454834 0.6069540977478027 54.627097053527834 0.6069540977478027ZM58.0988501739502 -6.887686729431152Q60.012658519744875 -6.887686729431152 61.55261151313782 -7.602875232696533Q63.09256450653076 -8.318063735961914 63.98771945953369 -9.603679656982422Q64.88287441253662 -10.88929557800293 64.88287441253662 -12.625147819519043V-15.7966947555542Q64.42466966629028 -15.59880542755127 63.79713384628296 -15.408884525299072Q63.16959802627564 -15.218963623046875 62.383354349136354 -15.045644283294678Q61.59711067199707 -14.87232494354248 60.662117643356325 -14.70298981666565Q59.72712461471558 -14.533654689788818 58.66197387695313 -14.359670639038086Q57.14127723693848 -14.119280338287354 55.96257440567017 -13.610610246658325Q54.78387157440186 -13.101940155029297 54.109189910888674 -12.289132356643677Q53.43450824737549 -11.476324558258057 53.43450824737549 -10.316882133483887Q53.43450824737549 -9.245092391967773 54.02419201850891 -8.470136642456055Q54.613875789642336 -7.695180892944336 55.66043083190918 -7.291433811187744Q56.70698587417603 -6.887686729431152 58.0988501739502 -6.887686729431152Z"/>
    <path d="M102.52202737808227 -35.0625V-26.227761268615723H77.87726724624633V-35.0625ZM83.86710775375366 -44.625H95.3156198310852V-11.780510902404785Q95.3156198310852 -10.108406066894531 95.98565662384033 -9.471572399139404Q96.65569341659545 -8.834738731384277 98.56154954910278 -8.834738731384277Q99.42616022109985 -8.834738731384277 100.68456352233886 -8.834738731384277Q101.94296682357788 -8.834738731384277 102.52202737808227 -8.834738731384277V0.0Q101.633511428833 0.0 99.80932152748107 0.0Q97.98513162612915 0.0 96.06199300765991 0.0Q89.72946966171264 0.0 86.79828870773315 -2.3793411254882812Q83.86710775375366 -4.7586822509765625 83.86710775375366 -9.870650291442871Z"/>
    <path d="M121.34814056396485 0.796875Q115.92008623123169 0.796875 111.83476838111878 -1.5060932636260986Q107.74945053100586 -3.8090615272521973 105.48034605026245 -7.938866376876831Q103.21124156951905 -12.068671226501465 103.21124156951905 -17.515313148498535Q103.21124156951905 -22.969923496246338 105.48034605026245 -27.107696771621704Q107.74945053100586 -31.24547004699707 111.83476838111878 -33.552422523498535Q115.92008623123169 -35.859375 121.34814056396485 -35.859375Q124.9925239944458 -35.859375 128.06249174118042 -34.794880867004395Q131.13245948791504 -33.73038673400879 133.40289339065552 -31.784015655517578Q135.673327293396 -29.837644577026367 137.00278171539307 -27.171427965164185Q138.33223613739014 -24.505211353302002 138.52082761764527 -21.268563270568848H127.51060327529908Q127.36318334579468 -22.526293754577637 126.89767893791199 -23.543633937835693Q126.4321745300293 -24.56097412109375 125.66518720626831 -25.292768239974976Q124.89819988250733 -26.0245623588562 123.86293276786805 -26.41702151298523Q122.82766565322876 -26.809480667114258 121.55001815795899 -26.809480667114258Q119.4237049484253 -26.809480667114258 117.9076612854004 -25.683237314224243Q116.39161762237549 -24.55699396133423 115.58412345886231 -22.47716188430786Q114.77662929534912 -20.397329807281494 114.77662929534912 -17.515313148498535Q114.77662929534912 -14.666499614715576 115.58412345886231 -12.582018613815308Q116.39161762237549 -10.497537612915039 117.91629442214966 -9.37527847290039Q119.44097122192383 -8.253019332885742 121.55001815795899 -8.253019332885742Q122.82766565322876 -8.253019332885742 123.85496434211731 -8.650127410888672Q124.88226303100586 -9.047235488891602 125.63331350326538 -9.779029607772827Q126.3843639755249 -10.510823726654053 126.8498683834076 -11.557382822036743Q127.31537279129029 -12.603941917419434 127.48669799804688 -13.894875526428223H138.52082761764527Q138.4331749343872 -10.674164295196533 137.14157256126404 -7.995330333709717Q135.84997018814087 -5.3164963722229 133.5629347229004 -3.3409063816070557Q131.27589925765992 -1.365316390991211 128.1680794620514 -0.28422069549560547Q125.06025966644287 0.796875 121.34814056396485 0.796875Z"/>
    <path d="M152.70787410736085 -49.47265625V0.0H141.2593620300293V-49.47265625Z"/>
    <path d="M167.75811267852785 0.6069540977478027Q164.24654985427858 0.6069540977478027 161.54115987777712 -0.5378890037536621Q158.83576990127565 -1.682732105255127 157.28850508689882 -3.993668794631958Q155.741240272522 -6.304605484008789 155.741240272522 -9.790933609008789Q155.741240272522 -12.761948585510254 156.8063950634003 -14.768082857131958Q157.87154985427858 -16.774217128753662 159.7461969947815 -18.029961585998535Q161.62084413528444 -19.285706043243408 164.08982802391054 -19.938480615615845Q166.55881191253664 -20.59125518798828 169.33326698303225 -20.82234764099121Q172.4849050140381 -21.08531379699707 174.3728342151642 -21.406057119369507Q176.2607634162903 -21.726800441741943 177.08685732841494 -22.30851984024048Q177.91295124053957 -22.890239238739014 177.91295124053957 -23.94078254699707V-24.121405601501465Q177.91295124053957 -25.1639723777771 177.31529904365541 -25.94755721092224Q176.71764684677126 -26.731142044067383 175.63058496475222 -27.1740665435791Q174.54352308273317 -27.61699104309082 173.02017570495607 -27.61699104309082Q171.45432735443117 -27.61699104309082 170.28492237091066 -27.144182920455933Q169.11551738739016 -26.671374797821045 168.44481993675234 -25.79415488243103Q167.77412248611452 -24.916934967041016 167.64130998611452 -23.712332725524902H157.02687240600588Q157.29382682800295 -27.513433933258057 159.2461721992493 -30.222147464752197Q161.19851757049562 -32.93086099624634 164.76918698310854 -34.379181146621704Q168.33985639572145 -35.82750129699707 173.42393089294436 -35.82750129699707Q177.23565937042238 -35.82750129699707 180.18875146865847 -35.010040521621704Q183.14184356689455 -34.19257974624634 185.1625893211365 -32.6147665977478Q187.18333507537844 -31.036953449249268 188.2139613723755 -28.773162603378296Q189.24458766937258 -26.509371757507324 189.24458766937258 -23.616711616516113V0.0H178.06435943603518V-4.929999351501465H177.93154693603518Q176.8969323730469 -3.0374131202697754 175.46653915405275 -1.8095622062683105Q174.0361459350586 -0.5817112922668457 172.1375935173035 0.012621402740478516Q170.23904109954836 0.6069540977478027 167.75811267852785 0.6069540977478027ZM171.22986579895021 -6.887686729431152Q173.1436741447449 -6.887686729431152 174.68362713813784 -7.602875232696533Q176.22358013153078 -8.318063735961914 177.1187350845337 -9.603679656982422Q178.01389003753664 -10.88929557800293 178.01389003753664 -12.625147819519043V-15.7966947555542Q177.5556852912903 -15.59880542755127 176.92814947128298 -15.408884525299072Q176.30061365127565 -15.218963623046875 175.51436997413637 -15.045644283294678Q174.7281262969971 -14.87232494354248 173.79313326835634 -14.70298981666565Q172.8581402397156 -14.533654689788818 171.79298950195314 -14.359670639038086Q170.2722928619385 -14.119280338287354 169.09359003067019 -13.610610246658325Q167.91488719940187 -13.101940155029297 167.2402055358887 -12.289132356643677Q166.5655238723755 -11.476324558258057 166.5655238723755 -10.316882133483887Q166.5655238723755 -9.245092391967773 167.15520764350893 -8.470136642456055Q167.74489141464235 -7.695180892944336 168.7914464569092 -7.291433811187744Q169.83800149917604 -6.887686729431152 171.22986579895021 -6.887686729431152Z"/>
    <path d="M201.31186267852786 0.0 190.52217647552493 -35.0625H202.53912994384768L205.26442071914676 -24.097557067871094Q206.19277879714969 -20.242006301879883 207.05074641227725 -16.0816490650177Q207.9087140274048 -11.921291828155518 208.77066585540774 -7.881129741668701H207.24198457717898Q208.20487520217898 -11.921291828155518 209.18038317680362 -16.0816490650177Q210.15589115142825 -20.242006301879883 211.15995332717898 -24.097557067871094L214.06985542297366 -35.0625H224.19022628784182L227.08419153213504 -24.097557067871094Q228.08825370788577 -20.242006301879883 229.05977746963504 -16.0816490650177Q230.0313012313843 -11.921291828155518 230.9941918563843 -7.881129741668701H229.49207469940188Q230.33676025390628 -11.921291828155518 231.16484424591067 -16.069031715393066Q231.99292823791507 -20.216771602630615 232.87081691741946 -24.097557067871094L235.51907417297366 -35.0625H247.73790523529055L236.94821903228762 0.0H225.133143157959L221.27494976043704 -13.111213684082031Q220.73706075668338 -15.022379398345947 220.21577331542971 -17.012568712234497Q219.69448587417605 -19.002758026123047 219.1897999954224 -21.047400951385498Q218.68511411666873 -23.09204387664795 218.14722511291507 -25.104148387908936H220.12082502365115Q219.60817071914676 -23.09204387664795 219.0868832778931 -21.047400951385498Q218.56559583663943 -19.002758026123047 218.0569257450104 -17.012568712234497Q217.54825565338137 -15.022379398345947 216.9771635246277 -13.111213684082031L213.09506484985354 0.0Z"/>
  </g>
</g>
</svg>